HIERARCHY
ROOT Hips
{
  OFFSET -125.086 92.215 135.881
  CHANNELS 6 Xposition Yposition Zposition Zrotation Xrotation Yrotation
  JOINT LeftUpLeg
  {
    OFFSET 8.64259 1.95398 -2.38835
    CHANNELS 3 Zrotation Xrotation Yrotation
    JOINT LeftLeg
    {
      OFFSET 43.7702 0 0
      CHANNELS 3 Zrotation Xrotation Yrotation
      JOINT LeftFoot
      {
        OFFSET 40.6238 0 0
        CHANNELS 3 Zrotation Xrotation Yrotation
        JOINT LeftToeBase
        {
          OFFSET 12.7242 0 0
          CHANNELS 3 Zrotation Xrotation Yrotation
          End Site
          {
            OFFSET 0 0 0
          }
        }
      }
    }
  }
  JOINT RightUpLeg
  {
    OFFSET -8.2249 1.95398 -2.59336
    CHANNELS 3 Zrotation Xrotation Yrotation
    JOINT RightLeg
    {
      OFFSET 43.5653 0 0
      CHANNELS 3 Zrotation Xrotation Yrotation
      JOINT RightFoot
      {
        OFFSET 40.6238 0 0
        CHANNELS 3 Zrotation Xrotation Yrotation
        JOINT RightToeBase
        {
          OFFSET 12.7242 0 0
          CHANNELS 3 Zrotation Xrotation Yrotation
          End Site
          {
            OFFSET 0 0 0
          }
        }
      }
    }
  }
  JOINT Spine
  {
    OFFSET 0.165834 0.87714 6.61349
    CHANNELS 3 Zrotation Xrotation Yrotation
    JOINT Spine1
    {
      OFFSET 7.38963 1.71661e-005 0
      CHANNELS 3 Zrotation Xrotation Yrotation
      JOINT Spine2
      {
        OFFSET 11.9445 1.14441e-005 0
        CHANNELS 3 Zrotation Xrotation Yrotation
        JOINT Spine3
        {
          OFFSET 14.7254 4.19617e-005 0
          CHANNELS 3 Zrotation Xrotation Yrotation
          JOINT Spine4
          {
            OFFSET 10.9679 0 0
            CHANNELS 3 Zrotation Xrotation Yrotation
            JOINT RightShoulder
            {
              OFFSET 2.46616 -1.6653 3.69651
              CHANNELS 3 Zrotation Xrotation Yrotation
              JOINT RightArm
              {
                OFFSET 13.0012 0 0
                CHANNELS 3 Zrotation Xrotation Yrotation
                JOINT RightForeArm
                {
                  OFFSET 28.7848 1.52588e-005 0
                  CHANNELS 3 Zrotation Xrotation Yrotation
                  JOINT RightHand
                  {
                    OFFSET 26.5688 1.52588e-005 0
                    CHANNELS 3 Zrotation Xrotation Yrotation
                    End Site
                    {
                      OFFSET 0 0 0
                    }
                  }
                }
              }
            }
            JOINT LeftShoulder
            {
              OFFSET 2.38034 -1.29275 -3.7523
              CHANNELS 3 Zrotation Xrotation Yrotation
              JOINT LeftArm
              {
                OFFSET 16.3182 6.10352e-005 0
                CHANNELS 3 Zrotation Xrotation Yrotation
                JOINT LeftForeArm
                {
                  OFFSET 27.0901 0 0
                  CHANNELS 3 Zrotation Xrotation Yrotation
                  JOINT LeftHand
                  {
                    OFFSET 24.5451 1.52588e-005 0
                    CHANNELS 3 Zrotation Xrotation Yrotation
                    End Site
                    {
                      OFFSET 0 0 0
                    }
                  }
                }
              }
            }
            JOINT Neck
            {
              OFFSET 5.0226 -0.0266342 0
              CHANNELS 3 Zrotation Xrotation Yrotation
              JOINT Head
              {
                OFFSET 6.69363 2.86102e-005 0
                CHANNELS 3 Zrotation Xrotation Yrotation
                End Site
                {
                  OFFSET 0 0 0
                }
              }
            }
          }
        }
      }
    }
  }
}
MOTION
Frames:	10
Frame Time:	0.0416667
168.008 95.515 -180.223 -99.191 -44.7756 -94.522 -179.437 17.3587 88.5575 -8.81136 10.4269 2.59443 51.7375 0.382783 5.31601 44.2111 -1.09676 11.0346 174.7 -7.87082 88.9931 -34.263 -12.137 -2.38327 64.3533 -0.436672 17.5553 57.3319 -3.9367 3.28683 0.949099 7.64781 -90.4129 11.5861 1.69468 -0.997801 -0.0842164 1.64915 -1.07145 -22.6274 1.91619 -0.442216 -2.61475 1.91621 -0.442207 108.322 -46.3696 -72.1166 32.0081 -5.05574 -15.1582 -10.0643 -26.0339 -33.2953 -11.3551 -0.492897 -0.140054 -73.4332 -47.8911 103.742 -41.4485 -18.593 -7.90135 13.8135 60.6421 -6.38194 -12.2511 0.199352 -7.7232 6.82442 -0.265719 -4.90957 -26.4157 -0.745166 7.27178 
160.843 94.4757 -172.094 -100.825 -45.7405 -98.0268 -179.816 19.7344 85.5006 -26.4948 14.0097 2.71608 52.7733 -1.06321 8.51687 44.2275 -1.14676 6.0857 172.957 -5.96051 83.9698 -44.8221 -11.7103 -2.72737 46.1063 4.92211 23.2449 65.3747 -2.02942 16.32 0.745092 7.63509 -89.9071 11.6044 1.52579 0.0287312 -0.0656295 1.52559 -0.0384764 -22.6075 1.44659 0.486064 -2.5948 1.44659 0.48606 108.579 -47.4691 -71.847 33.2781 -3.07167 -11.1137 -8.12463 -29.5741 -27.1397 -10.7062 -0.577216 1.16582 -73.5893 -47.8107 103.505 -40.3051 -18.5189 -8.94338 13.2873 60.5615 -6.11845 -11.7933 0.151849 -7.31518 6.96015 -0.347742 -5.20787 -26.9723 -0.603844 6.32639 
154.377 94.5787 -164.926 -103.048 -47.0998 -101.227 -179.507 15.1334 82.9006 -33.6295 14.372 3.15629 60.9777 3.9742 13.7326 38.7728 -0.877831 0.0452349 173.87 5.95545 84.2326 -65.2683 -15.3529 -3.20504 40.2651 6.61281 16.4039 52.382 -2.57209 9.95156 0.340415 7.87401 -89.6271 11.1212 0.850623 0.657186 -0.549625 0.878705 0.619102 -23.0845 0.613784 0.882437 -3.07181 0.613796 0.882438 108.805 -47.7469 -71.5211 34.7972 -0.74444 -9.90773 -6.03123 -34.4045 -19.7931 -6.87517 -0.390361 1.43832 -74.3806 -47.317 102.303 -42.0039 -15.3815 -14.2566 13.849 59.5341 -7.77636 -11.1237 0.0765946 -6.50936 8.62514 0.368824 -5.57967 -27.0812 -0.0831398 8.00944 
147.775 95.7578 -157.988 -104.766 -49.8002 -100.552 -178.734 7.93055 85.2335 -34.1857 16.4166 5.05758 65.7644 7.18524 13.6651 40.5978 -1.00861 0.303154 173.29 16.9766 88.3449 -67.5886 -14.2316 -1.50014 48.5653 3.52763 14.9793 45.5889 -2.29075 6.3003 -0.138619 7.93805 -89.8801 10.9998 -0.220344 0.26071 -0.671116 -0.208673 0.270146 -23.2063 -0.288531 0.182429 -3.1937 -0.288529 0.182425 108.781 -47.8166 -71.5692 35.6498 1.54911 -6.98853 -4.73359 -35.6218 -15.8421 -4.44285 -0.235041 1.13491 -74.4625 -46.616 102.219 -42.9492 -10.4472 -20.5677 15.4134 57.173 -12.0668 -9.79673 0.0863346 -7.15118 7.12099 1.12054 -5.27345 -27.8178 0.303619 8.76373 
141.336 96.5807 -151.432 -105.144 -52.4015 -99.7209 -177.062 0.384455 87.4555 -31.4932 19.9449 5.83927 68.1835 9.44731 13.775 42.2044 -1.14232 0.94055 172.451 21.8453 90.0338 -51.3217 -7.88347 1.0647 53.1004 1.7771 15.4702 47.8821 -2.7298 3.32737 -0.449091 7.83621 -90.0681 11.2016 -0.925416 -0.0447724 -0.469031 -0.926467 -0.00400715 -23.0066 -0.869166 -0.320848 -2.99393 -0.869173 -0.320854 109.286 -48.8917 -70.9178 33.8831 2.44506 -2.01171 -4.83499 -35.3448 -16.2439 -4.88973 -0.237906 0.548492 -74.5282 -45.7205 102.171 -41.4685 -3.96781 -24.7539 16.7276 49.5996 -20.2206 -6.27089 -0.0153791 -6.57773 5.56924 0.9933 -6.76326 -27.3178 0.189855 9.87918 
134.92 96.6437 -145.072 -104.142 -56.2006 -100.222 -176.28 -5.23918 88.6494 -28.4917 21.6448 6.27722 68.8825 10.3539 11.5035 46.0048 -1.3133 4.09905 174.083 19.1235 87.9758 -19.5627 0.191182 1.42568 52.7771 2.13886 18.176 42.2847 -2.21336 -4.67164 -0.772555 7.71666 -90.0312 11.4424 -1.55171 0.0950365 -0.227646 -1.54601 0.163246 -22.77 -1.5085 -0.375815 -2.75732 -1.5085 -0.375819 110.046 -49.4555 -69.8105 33.686 4.93186 0.466604 -5.41763 -35.8043 -15.4832 -4.25685 -0.22707 1.20539 -75.6044 -45.3435 100.465 -39.0924 0.484049 -28.9887 18.3908 44.2524 -27.9504 -5.59852 -0.0183572 -6.91789 6.41188 0.870695 -7.86891 -27.1379 0.331592 9.98885 
127.998 96.1817 -138.382 -104.886 -59.3691 -102.374 -176.036 -9.76343 89.7099 -30.7034 25.53 8.2572 66.9279 9.2303 8.84875 53.5862 -1.38601 7.03667 176.596 16.8526 85.913 -6.05152 4.37481 -0.72955 52.609 2.32933 20.0754 37.9502 -1.32268 -7.5754 -1.02955 7.68133 -89.9955 11.515 -2.04609 0.218317 -0.15436 -2.03447 0.308181 -22.7022 -2.01707 -0.406974 -2.68954 -2.01708 -0.406973 110.462 -49.4604 -69.1627 34.1775 7.24162 0.166297 -4.19099 -37.5848 -11.2588 -3.20517 -0.176322 1.40353 -75.3233 -44.9472 100.933 -39.1425 2.8292 -31.6594 19.8342 42.5119 -31.7386 -4.17186 -0.0467133 -7.20131 7.83482 0.510243 -7.67495 -27.0741 0.105971 9.63967 
120.119 95.4126 -130.609 -103.908 -59.1283 -99.4812 -177.584 -9.91192 91.9646 -40.1192 21.5863 10.154 59.0452 3.47174 -0.475168 66.0793 -1.8989 6.25987 175.112 18.071 88.2816 -16.0928 -1.90933 1.60152 47.5929 4.60931 13.2039 39.9227 -1.72447 -5.43177 -0.913856 7.48249 -90.4849 11.904 -2.04536 -0.745093 0.234489 -2.0762 -0.654319 -22.3089 -1.72688 -1.32548 -2.29627 -1.72688 -1.32549 109.947 -49.0037 -69.8952 33.2181 8.29709 -0.651302 -2.70033 -39.0282 -7.94734 -2.275 -0.128396 2.03292 -74.6291 -46.6349 101.954 -39.0726 1.98742 -27.7971 19.7243 42.6633 -32.252 -4.2082 -0.0441776 -7.26566 8.78726 1.23116 -4.77017 -29.5296 0.335221 8.35281 
112.827 94.7673 -123.247 -104.055 -57.066 -97.0814 -178.685 -0.87667 94.2685 -58.571 15.5957 8.34249 45.0086 -3.33431 0.850038 62.7377 -3.25374 -1.88191 174.421 18.9891 91.3552 -31.5072 -4.57693 3.30942 56.2636 2.50955 9.77209 30.616 -0.0722409 -2.61198 -0.499908 7.41767 -91.015 12.0232 -1.47295 -1.86421 0.351807 -1.55356 -1.79761 -22.1753 -0.844728 -2.22056 -2.16271 -0.844741 -2.22057 109.999 -48.4602 -69.7292 31.7814 6.96098 -2.08817 -3.23107 -37.6039 -10.1923 -4.17508 -0.292541 3.43263 -74.8777 -46.6667 101.559 -41.5911 -0.434298 -21.7894 19.4591 47.1655 -29.1244 -5.06266 -0.0285262 -7.00997 8.9343 1.31506 -4.64659 -30.4321 0.0698727 9.42483 
106.157 94.9689 -116.54 -106.114 -56.882 -97.7955 178.361 11.2003 91.962 -70.2501 7.23613 6.75274 51.1894 1.58864 4.22752 55.2165 -1.91482 2.77368 174.564 13.4705 92.9989 -36.1659 -2.91622 3.51246 63.9544 0.40777 10.671 32.4424 -0.443574 -1.92833 -0.240196 7.67018 -91.3582 11.5141 -1.11295 -2.59089 -0.158868 -1.22586 -2.53945 -22.6737 -0.283179 -2.80542 -2.66106 -0.28318 -2.80543 109.847 -48.5215 -69.9786 29.8524 3.73672 -6.68561 -3.69033 -32.9402 -14.7486 -9.18262 -0.682954 3.72076 -74.8909 -47.1563 101.511 -43.6703 -3.28956 -19.2202 17.5377 55.5689 -22.0471 -6.70713 0.0435206 -7.8741 9.09552 0.42087 -4.56781 -28.6874 -0.68632 9.47295 
